<svg xmlns="http://www.w3.org/2000/svg" viewBox="0 0 80.192 26">
  <defs>
    <style>
      .cls-1 {
        fill: #ffba31;
      }

      .cls-2 {
        fill: #fff;
      }
    </style>
  </defs>
  <g id="Group_2" data-name="Group 2" transform="translate(-153 -258)">
    <path id="Path_2" data-name="Path 2" class="cls-1" d="M13,0A13,13,0,1,1,0,13,13,13,0,0,1,13,0Z" transform="translate(153 258)"/>
    <path id="Path_3" data-name="Path 3" class="cls-2" d="M2.09.11a.947.947,0,0,1-.715-.286A.977.977,0,0,1,1.1-.88a1.2,1.2,0,0,1,.11-.44L6.82-14.564a1.687,1.687,0,0,1,.495-.649,1.218,1.218,0,0,1,.781-.253h.22a1.218,1.218,0,0,1,.781.253,1.687,1.687,0,0,1,.495.649L15.2-1.32a1.2,1.2,0,0,1,.11.44.977.977,0,0,1-.275.7.947.947,0,0,1-.715.286,1,1,0,0,1-.561-.165,1.052,1.052,0,0,1-.385-.451l-1.43-3.432H4.466L3.036-.506a1.052,1.052,0,0,1-.385.451A1,1,0,0,1,2.09.11ZM5.236-5.764h5.94l-2.97-7.15ZM26.136.22a8,8,0,0,1-4.026-1,6.947,6.947,0,0,1-2.728-2.794,8.453,8.453,0,0,1-.968-4.081,8.309,8.309,0,0,1,1.012-4.136,7.173,7.173,0,0,1,2.761-2.794,7.744,7.744,0,0,1,3.883-.99,9.738,9.738,0,0,1,3,.418,11.026,11.026,0,0,1,2.475,1.166.774.774,0,0,1,.308.308.923.923,0,0,1,.132.484.889.889,0,0,1-.253.638.886.886,0,0,1-.671.264,1.02,1.02,0,0,1-.462-.11,9.15,9.15,0,0,0-2.068-.924,7.83,7.83,0,0,0-2.244-.308,6.388,6.388,0,0,0-3.014.7,5.068,5.068,0,0,0-2.1,2.057,6.486,6.486,0,0,0-.759,3.223,6.468,6.468,0,0,0,.715,3.069A5.264,5.264,0,0,0,23.2-2.453a6.293,6.293,0,0,0,3.2.781,7.939,7.939,0,0,0,3.85-.968V-6.622H26.62a.869.869,0,0,1-.638-.264.869.869,0,0,1-.264-.638.869.869,0,0,1,.264-.638.869.869,0,0,1,.638-.264h4.334a1.018,1.018,0,0,1,.748.308,1.018,1.018,0,0,1,.308.748v4.994a1.5,1.5,0,0,1-.231.825,1.428,1.428,0,0,1-.6.539A11.148,11.148,0,0,1,26.136.22ZM38.082.11a.957.957,0,0,1-.7-.286.957.957,0,0,1-.286-.7V-14.344a.994.994,0,0,1,.286-.715.939.939,0,0,1,.7-.3h5.126A6.942,6.942,0,0,1,47.7-14.124a3.986,3.986,0,0,1,1.5,3.234,4.205,4.205,0,0,1-.737,2.409A4.1,4.1,0,0,1,46.31-6.908a3.024,3.024,0,0,1,2.167,1.969,8.623,8.623,0,0,1,.583,3.047V-.88a.957.957,0,0,1-.286.7.957.957,0,0,1-.7.286,1,1,0,0,1-.737-.275.967.967,0,0,1-.275-.715v-.66a9.825,9.825,0,0,0-.2-2.035,3.273,3.273,0,0,0-.946-1.672,3.109,3.109,0,0,0-2.266-.737H39.094v5.1a.939.939,0,0,1-.3.7A.994.994,0,0,1,38.082.11Zm4.994-7.986a5.307,5.307,0,0,0,3-.748,2.4,2.4,0,0,0,1.111-2.112,2.36,2.36,0,0,0-.957-2.024,5.69,5.69,0,0,0-3.267-.7H39.094v5.588Z" transform="translate(184 278)"/>
  </g>
</svg>
